<svg width="30" height="20" viewBox="0 0 30 20" fill="none" xmlns="http://www.w3.org/2000/svg">
<path d="M29.8169 9.55806L20.4419 0.183059C20.1977 -0.0611011 19.8022 -0.0611011 19.5581 0.183059C19.314 0.427219 19.314 0.822727 19.5581 1.06683L27.8663 9.37495H0.62502C0.279551 9.37495 0 9.6545 0 9.99997C0 10.3454 0.279551 10.625 0.62502 10.625H27.8663L19.5581 18.9331C19.314 19.1772 19.314 19.5727 19.5581 19.8168C19.6802 19.9389 19.8401 19.9999 20 19.9999C20.1599 19.9999 20.3198 19.9389 20.442 19.8168L29.817 10.4418C30.0611 10.1977 30.0611 9.80222 29.8169 9.55806Z" fill="black"/>
</svg>
