<svg width="23" height="19" viewBox="0 0 23 19" fill="none" xmlns="http://www.w3.org/2000/svg">
<path d="M21.0833 0.875H1.91668C0.85958 0.875 0 1.73458 0 2.79168V16.2084C0 17.2654 0.85958 18.125 1.91668 18.125H21.0834C22.1404 18.125 23 17.2654 23 16.2083V2.79168C23 1.73458 22.1404 0.875 21.0833 0.875ZM1.91668 1.83332H21.0834C21.154 1.83332 21.2162 1.85906 21.2825 1.87361C19.6231 3.39229 14.1209 8.42587 12.1954 10.1607C12.0447 10.2964 11.8019 10.4583 11.5 10.4583C11.1982 10.4583 10.9554 10.2964 10.8042 10.1603C8.8789 8.42569 3.37637 3.39184 1.71727 1.8737C1.78367 1.85915 1.84602 1.83332 1.91668 1.83332ZM0.958318 16.2083V2.79168C0.958318 2.69779 0.986619 2.61262 1.01196 2.52682C2.28199 3.68922 6.12119 7.20139 8.61058 9.46514C6.12928 11.5965 2.28908 15.2374 1.00895 16.4581C0.98635 16.3766 0.958318 16.2969 0.958318 16.2083ZM21.0833 17.1667H1.91668C1.84013 17.1667 1.77208 17.14 1.70061 17.1229C3.02342 15.8619 6.88805 12.2001 9.32574 10.1147C9.64351 10.403 9.9338 10.6658 10.1626 10.872C10.5576 11.2286 11.0199 11.4167 11.5 11.4167C11.9801 11.4167 12.4424 11.2285 12.8369 10.8725C13.0658 10.6662 13.3563 10.4031 13.6743 10.1147C16.1121 12.1999 19.9762 15.8614 21.2994 17.1229C21.2279 17.14 21.16 17.1667 21.0833 17.1667ZM22.0417 16.2083C22.0417 16.2969 22.0136 16.3766 21.9911 16.4581C20.7105 15.2367 16.8707 11.5963 14.3895 9.46519C16.8789 7.20144 20.7176 3.68958 21.988 2.52673C22.0134 2.61253 22.0417 2.69775 22.0417 2.79164V16.2083Z" fill="black"/>
</svg>
