<svg width="69" height="81" viewBox="0 0 69 81" fill="none" xmlns="http://www.w3.org/2000/svg">
<path d="M68.2325 20.165C68.2257 20.0467 68.2026 19.9299 68.1636 19.818C68.1488 19.7748 68.138 19.733 68.1191 19.6911C68.0534 19.5443 67.962 19.4103 67.8491 19.2956L48.9491 0.39555C48.8343 0.282656 48.7003 0.191194 48.5535 0.12555C48.5117 0.10665 48.4698 0.09585 48.428 0.081C48.3151 0.0421875 48.1974 0.0185625 48.0783 0.0108C48.0554 0.01485 48.0297 0 48 0H10.2C9.45446 0 8.85 0.604462 8.85 1.35V5.4H2.1C1.35446 5.4 0.75 6.00446 0.75 6.75V79.65C0.75 80.3955 1.35446 81 2.1 81H58.8C59.5455 81 60.15 80.3955 60.15 79.65V72.9H66.9C67.6455 72.9 68.25 72.2955 68.25 71.55V20.25C68.25 20.2203 68.2352 20.1947 68.2325 20.165ZM49.35 4.6089L63.6411 18.9H49.35V4.6089ZM57.45 78.3H3.45V8.1H8.85V71.55C8.85 72.2955 9.45446 72.9 10.2 72.9H57.45V78.3ZM65.55 70.2H11.55V2.7H46.65V20.25C46.65 20.9955 47.2545 21.6 48 21.6H65.55V70.2Z" fill="black"/>
</svg>
