<svg width="85" height="77" viewBox="0 0 85 77" fill="none" xmlns="http://www.w3.org/2000/svg">
<path d="M79.7677 66.1297C78.4318 66.1297 77.212 66.6335 76.2864 67.4602L72.3551 65.214V61.5857C72.3551 60.8952 71.7953 60.3354 71.1048 60.3354C70.4143 60.3354 69.8544 60.8952 69.8544 61.5857V63.7851L65.3505 61.2116C65.3515 61.1831 65.3533 61.1546 65.3533 61.1261V36.2263C65.3533 35.3666 64.897 34.5551 64.1623 34.108L43.7861 21.7133C43.7742 21.7061 43.7621 21.7001 43.7502 21.6931V16.4233L45.4248 17.4418C45.6279 17.5654 45.8519 17.6241 46.0733 17.6241C46.4954 17.6241 46.9074 17.4103 47.1428 17.0232C47.5015 16.4333 47.3143 15.6642 46.7243 15.3053L43.7502 13.4962V10.9175C46.0335 10.3554 47.7323 8.2915 47.7323 5.8372C47.7323 2.95196 45.385 0.604858 42.4999 0.604858C39.6148 0.604858 37.2676 2.95213 37.2676 5.8372C37.2676 8.2915 38.9663 10.3554 41.2496 10.9175V13.5103L38.2997 15.291C37.7085 15.6479 37.5185 16.4163 37.8754 17.0076C38.2323 17.5989 39.0007 17.7889 39.592 17.4318L41.2496 16.4313V21.6904C41.2386 21.6969 41.2271 21.7024 41.2161 21.7091L20.678 34.1066C19.939 34.5527 19.4798 35.3661 19.4798 36.2293V43.9255C19.4798 44.616 20.0396 45.1758 20.7302 45.1758C21.4207 45.1758 21.9805 44.616 21.9805 43.9255V37.7507L41.2494 49.3822V72.7429L22.2282 61.2611C22.2175 61.2398 22.2079 61.2181 22.1957 61.1971C22.1359 61.0926 22.0627 61.0007 21.9803 60.9207V49.254C21.9803 48.5635 21.4205 48.0037 20.73 48.0037C20.0395 48.0037 19.4797 48.5635 19.4797 49.254V61.1236C19.4797 61.1843 19.4825 61.2446 19.487 61.3046L14.9788 63.8804V61.6014C14.9788 60.9108 14.419 60.351 13.7285 60.351C13.038 60.351 12.4782 60.9108 12.4782 61.6014V65.3091L8.71357 67.46C7.788 66.6333 6.56802 66.1295 5.23234 66.1295C2.34727 66.1297 0 68.477 0 71.3622C0 74.2474 2.34727 76.5945 5.23234 76.5945C8.11742 76.5945 10.4647 74.2473 10.4647 71.3622C10.4647 70.7177 10.3468 70.1002 10.1328 69.5296L13.9372 67.3558L16.6503 68.9936C16.8523 69.1156 17.0752 69.1736 17.2953 69.1736C17.7189 69.1736 18.1322 68.9582 18.3669 68.5693C18.7238 67.9782 18.5338 67.2096 17.9426 66.8527L16.4231 65.9355L20.8975 63.3788L41.2159 75.6435C41.3425 75.7198 41.474 75.7825 41.6087 75.8345C41.8356 76.0651 42.1508 76.2084 42.4998 76.2084C42.8502 76.2084 43.1664 76.0639 43.3935 75.8317C43.528 75.7793 43.6595 75.7161 43.7858 75.6393L51.834 70.7437C52.424 70.3848 52.6113 69.6156 52.2524 69.0258C51.8935 68.436 51.1243 68.2482 50.5345 68.6073L43.7501 72.7342V49.3792L62.8523 37.7594V61.1142L55.136 65.8079C54.546 66.1669 54.3588 66.9361 54.7176 67.526C54.953 67.913 55.3649 68.1267 55.787 68.1267C56.0084 68.1267 56.2326 68.0679 56.4357 67.9445L64.0193 63.3315L68.4853 65.8833L66.894 66.8512C66.304 67.2101 66.1167 67.9793 66.4756 68.5691C66.711 68.9561 67.1229 69.17 67.545 69.17C67.7664 69.17 67.9906 69.1111 68.1935 68.9878L70.9666 67.301L74.8671 69.5296C74.653 70.1002 74.5351 70.7175 74.5351 71.3622C74.5351 74.2474 76.8824 76.5945 79.7675 76.5945C82.6526 76.5945 84.9998 74.2473 84.9998 71.3622C84.9998 68.4771 82.6529 66.1297 79.7677 66.1297ZM5.23234 74.0939C3.72612 74.0939 2.50064 72.8684 2.50064 71.3622C2.50064 69.856 3.72612 68.6305 5.23234 68.6305C6.73856 68.6305 7.96405 69.856 7.96405 71.3622C7.96405 72.8684 6.73856 74.0939 5.23234 74.0939ZM39.7682 5.8372C39.7682 4.33098 40.9937 3.1055 42.4999 3.1055C44.0061 3.1055 45.2316 4.33098 45.2316 5.8372C45.2316 7.34342 44.0063 8.5689 42.5001 8.5689C40.9939 8.5689 39.7682 7.34342 39.7682 5.8372ZM41.2498 24.6099V25.9255C41.2498 26.616 41.8096 27.1758 42.5001 27.1758C43.1906 27.1758 43.7504 26.616 43.7504 25.9255V24.6187L61.6972 35.5355L43.7504 46.4523V44.9879C43.7504 44.2974 43.1906 43.7376 42.5001 43.7376C41.8096 43.7376 41.2498 44.2974 41.2498 44.9879V46.4611L23.1499 35.5353L41.2498 24.6099ZM79.7677 74.0939C78.2614 74.0939 77.036 72.8684 77.036 71.3622C77.036 69.856 78.2614 68.6305 79.7677 68.6305C81.2739 68.6305 82.4994 69.856 82.4994 71.3622C82.4994 72.8684 81.2739 74.0939 79.7677 74.0939Z" fill="black"/>
</svg>
