<svg width="81" height="81" viewBox="0 0 81 81" fill="none" xmlns="http://www.w3.org/2000/svg">
<g clip-path="url(#clip0_39_54)">
<path d="M72.6083 12.1853C70.9769 12.095 69.4524 13.2351 69.4524 14.9539V25.5767H43.3181L42.1597 23.1553C44.8411 19.6003 43.6878 14.3495 39.7919 12.2155L39.8743 4.40439C39.9216 -0.105662 32.9743 -0.139201 32.9268 4.33115L32.8446 12.134C28.9081 14.1839 27.6438 19.4225 30.2464 23.029L28.9608 25.5767H2.76855C1.24205 25.5767 0 26.8188 0 28.3453V79.1253C0 80.6518 1.24205 81.8939 2.76855 81.8939H73.1014C77.433 81.8939 80.9601 78.3884 80.9983 74.0655C80.9986 74.0536 81 74.0421 81 74.0301V20.5772C81 15.9499 77.2354 12.1853 72.6083 12.1853ZM71.8255 14.9539C71.8255 14.5612 72.32 14.496 72.6083 14.5583C75.9271 14.5583 78.627 17.2582 78.627 20.577V68.3903C77.2009 66.9924 75.2488 66.1292 73.0992 66.1292C72.7905 66.1765 71.8255 66.264 71.8255 65.7337V14.9539ZM52.7973 50.8905L51.5578 54.4039L37.9284 25.9142C38.8036 25.7101 39.6209 25.3519 40.3477 24.8665L52.7973 50.8905ZM32.0216 24.7784C32.7378 25.2788 33.5468 25.655 34.4176 25.8775L20.1902 54.0726L19.0252 50.5339L32.0216 24.7784ZM40.295 36.3597L31.8316 36.2703L36.1542 27.7039L40.295 36.3597ZM35.2997 4.3563C35.3149 2.90605 37.516 2.96823 37.5011 4.3794L37.4271 11.4042C36.7004 11.2875 35.955 11.278 35.2257 11.3774L35.2997 4.3563ZM32.7325 15.1178C33.6759 14.1942 34.983 13.6719 36.3021 13.6832C39.0735 13.7124 41.3043 15.9909 41.2752 18.7623C41.2461 21.5158 38.9971 23.7357 36.2499 23.7357C36.232 23.7357 36.2138 23.7355 36.1959 23.7354C33.4245 23.7061 31.1939 21.4277 31.223 18.6563C31.237 17.3138 31.7732 16.057 32.7325 15.1178ZM73.1014 79.521H2.76855C2.55039 79.521 2.37305 79.3435 2.37305 79.1255V28.3454C2.37305 28.1274 2.55039 27.9499 2.76855 27.9499H27.7631L23.6083 36.1836L19.6001 36.1412C18.0753 36.114 18.0435 38.498 19.5751 38.5141L22.4172 38.5442L16.8325 49.6117C16.5947 50.083 16.5547 50.6187 16.7197 51.1202L18.2353 55.7236C18.7748 57.3623 21.1007 57.536 21.8778 55.996L30.6401 38.631L41.4359 38.7449L49.8291 56.2892C50.5698 57.8381 52.9044 57.7187 53.4777 56.0938L55.0895 51.5257C55.2653 51.0276 55.2366 50.4907 55.0085 50.014L49.6589 38.8316L52.501 38.8615C54.0257 38.8887 54.0575 36.5048 52.526 36.4886L48.5177 36.4464L44.453 27.9498H69.4521V65.7339C69.4521 67.816 71.3311 68.5679 73.0989 68.5024C76.141 68.5024 78.6167 70.9728 78.6263 74.0128C78.617 77.0516 76.1424 79.521 73.1014 79.521Z" fill="black"/>
<path d="M62.1456 60.0492H9.67847C8.58797 60.0492 7.70093 60.9362 7.70093 62.0267V72.7845C7.70093 73.875 8.58797 74.7621 9.67847 74.7621H62.1457C63.2362 74.7621 64.1233 73.875 64.1233 72.7845V62.0267C64.1231 60.9364 63.2361 60.0492 62.1456 60.0492ZM61.7501 72.389H10.074V62.4222H13.1316V64.5464C13.1316 66.0313 15.5046 66.0989 15.5046 64.5464V62.4222H18.5301V66.1285C18.5301 67.6134 20.9031 67.6809 20.9031 66.1285V62.4222H23.9285V64.5464C23.9285 66.0313 26.3015 66.0989 26.3015 64.5464V62.4222H29.327V66.1285C29.327 67.6134 31.7 67.6809 31.7 66.1285V62.4222H34.7255V64.5464C34.7255 66.0313 37.0985 66.0989 37.0985 64.5464V62.4222H40.124V66.1285C40.124 67.6134 42.4971 67.6809 42.4971 66.1285V62.4222H45.5225V64.5464C45.5225 66.0313 47.8956 66.0989 47.8956 64.5464V62.4222H50.9209V66.1285C50.9209 67.6134 53.294 67.6809 53.294 66.1285V62.4222H56.3194V64.5464C56.3194 66.0313 58.6925 66.0989 58.6925 64.5464V62.4222H61.7501V72.389Z" fill="black"/>
</g>
<defs>
<clipPath id="clip0_39_54">
<rect width="81" height="81" fill="white"/>
</clipPath>
</defs>
</svg>
