<svg width="52" height="40" viewBox="0 0 52 40" fill="none" xmlns="http://www.w3.org/2000/svg">
<path d="M49.1938 15.2357C48.3516 14.7916 47.4101 14.5928 46.4156 14.6963V4.81864C46.4156 2.16164 44.3654 0 41.8455 0H10.1606C7.6407 0 5.59059 2.16164 5.59059 4.81864V14.6963C1.60979 14.2819 -1.23886 18.6642 0.541724 22.419L4.60417 30.9852C5.20061 32.243 6.21221 33.1724 7.41687 33.629L5.31629 37.1604C4.86924 37.9119 5.08464 38.9031 5.79746 39.3745C6.50713 39.8438 7.44836 39.622 7.89734 38.8671L10.8253 33.9447H41.1882L44.1079 38.8657C44.3969 39.3529 44.8931 39.6201 45.4007 39.6201C46.584 39.6201 47.3288 38.2372 46.6907 37.1618L44.5935 33.6273C45.7963 33.1702 46.8062 32.2415 47.4019 30.9852L51.4644 22.419C52.7166 19.7784 51.698 16.556 49.1938 15.2357ZM8.63727 4.81864C8.63727 3.93297 9.32064 3.21243 10.1606 3.21243H41.8455C42.6855 3.21243 43.3689 3.93297 43.3689 4.81864V16.1962C42.9742 16.6054 42.6387 17.0867 42.381 17.6299L41.4464 19.6006C40.7186 17.9552 39.1354 16.8115 37.3029 16.8115H29.0497C27.88 16.8115 26.8122 17.2777 26.003 18.0424C25.1938 17.2776 24.1259 16.8115 22.9563 16.8115H15.2108C13.4214 16.8115 11.4743 17.9604 10.602 19.6899L9.62501 17.63C9.36736 17.0868 9.03182 16.6054 8.63717 16.1962V4.81864H8.63727ZM24.4797 23.2367H13.1798V21.6301C13.1798 20.8796 14.2618 20.0239 15.2109 20.0239H22.9564C23.7964 20.0239 24.4797 20.7445 24.4797 21.6301V23.2367ZM27.5264 21.6301C27.5264 20.7445 28.2098 20.0239 29.0498 20.0239H37.303C38.143 20.0239 38.8264 20.7445 38.8264 21.6301V23.2367H27.5264V21.6301ZM48.7395 20.9823L44.6769 29.5487C44.3307 30.2788 43.6346 30.7324 42.8604 30.7324H9.14587C8.3716 30.7324 7.67554 30.2788 7.32923 29.5487L3.26678 20.9824C2.76591 19.9261 3.17335 18.6371 4.175 18.109C5.1799 17.5793 6.39644 18.0045 6.90016 19.0667L9.8396 25.2649C10.1858 25.9953 10.882 26.4491 11.6564 26.4491H40.3498C41.1243 26.4491 41.8204 25.9953 42.1664 25.2653L45.1062 19.0666C45.4527 18.3359 46.15 17.882 46.926 17.882C48.4181 17.8819 49.417 19.5533 48.7395 20.9823Z" fill="black"/>
</svg>
