<svg width="22" height="22" viewBox="0 0 22 22" fill="none" xmlns="http://www.w3.org/2000/svg">
<path d="M18.1774 13.2476C17.7065 12.7573 17.1385 12.4952 16.5366 12.4952C15.9395 12.4952 15.3667 12.7525 14.8764 13.2428L13.3425 14.7719C13.2163 14.7039 13.0901 14.6408 12.9687 14.5777C12.7939 14.4903 12.6289 14.4078 12.4881 14.3204C11.0512 13.4078 9.74543 12.2185 8.49302 10.6797C7.88624 9.91272 7.47847 9.2671 7.18236 8.61177C7.58041 8.2477 7.94934 7.86906 8.30856 7.50499C8.44448 7.36907 8.5804 7.22829 8.71632 7.09237C9.73573 6.07297 9.73573 4.7526 8.71632 3.73319L7.3911 2.40797C7.24061 2.25748 7.08527 2.10214 6.93965 1.94681C6.64839 1.64584 6.34257 1.33516 6.02704 1.04391C5.55617 0.577892 4.99307 0.330322 4.40084 0.330322C3.80862 0.330322 3.23581 0.577892 2.75038 1.04391C2.74552 1.04876 2.74552 1.04876 2.74067 1.05361L1.09021 2.71864C0.468854 3.33999 0.114489 4.09726 0.0368205 4.97589C-0.0796829 6.39335 0.337788 7.71372 0.658172 8.57779C1.44457 10.6991 2.61931 12.6651 4.37172 14.7719C6.4979 17.3107 9.05612 19.3155 11.9784 20.7281C13.0949 21.2572 14.5852 21.8834 16.2502 21.9902C16.3521 21.9951 16.4589 21.9999 16.556 21.9999C17.6774 21.9999 18.6191 21.597 19.357 20.7961C19.3618 20.7864 19.3715 20.7815 19.3764 20.7718C19.6288 20.466 19.9201 20.1893 20.2259 19.8932C20.4346 19.6942 20.6482 19.4854 20.8569 19.267C21.3375 18.767 21.5899 18.1845 21.5899 17.5874C21.5899 16.9854 21.3327 16.4078 20.8424 15.9224L18.1774 13.2476ZM19.9152 18.3592C19.9104 18.3592 19.9104 18.3641 19.9152 18.3592C19.7259 18.5631 19.5317 18.7476 19.323 18.9514C19.0075 19.2524 18.6871 19.5679 18.3861 19.9223C17.8958 20.4466 17.3182 20.6941 16.5609 20.6941C16.4881 20.6941 16.4104 20.6941 16.3376 20.6893C14.8959 20.5971 13.5561 20.034 12.5512 19.5534C9.80369 18.2233 7.3911 16.335 5.38627 13.9418C3.73095 11.9467 2.62417 10.102 1.89117 8.12148C1.43972 6.91276 1.27467 5.97103 1.34748 5.08269C1.39603 4.51473 1.61447 4.04387 2.01738 3.64096L3.6727 1.98564C3.91056 1.76234 4.16298 1.64098 4.41055 1.64098C4.71637 1.64098 4.96394 1.82545 5.11928 1.98079C5.12413 1.98564 5.12899 1.9905 5.13384 1.99535C5.42996 2.27205 5.71151 2.55845 6.00762 2.86427C6.1581 3.01961 6.31344 3.17495 6.46878 3.33514L7.794 4.66036C8.30856 5.17492 8.30856 5.65064 7.794 6.1652C7.65323 6.30597 7.51731 6.44675 7.37653 6.58267C6.96877 7.00014 6.58043 7.38848 6.1581 7.76712C6.14839 7.77683 6.13869 7.78168 6.13383 7.79139C5.71636 8.20886 5.79403 8.61662 5.88141 8.89332C5.88626 8.90788 5.89112 8.92244 5.89597 8.93701C6.24063 9.77195 6.72606 10.5583 7.46391 11.4952L7.46877 11.5001C8.80855 13.1505 10.2212 14.4369 11.7794 15.4224C11.9784 15.5486 12.1823 15.6505 12.3765 15.7476C12.5512 15.835 12.7163 15.9175 12.857 16.0049C12.8765 16.0146 12.8959 16.0292 12.9153 16.0389C13.0803 16.1214 13.2357 16.1602 13.3959 16.1602C13.7988 16.1602 14.0512 15.9078 14.1337 15.8253L15.7939 14.1651C15.9589 14 16.2211 13.801 16.5269 13.801C16.8279 13.801 17.0754 13.9903 17.2259 14.1554C17.2308 14.1602 17.2308 14.1602 17.2356 14.1651L19.9104 16.8398C20.4103 17.335 20.4103 17.8447 19.9152 18.3592Z" fill="black"/>
</svg>
