<svg width="17" height="9" viewBox="0 0 17 9" fill="none" xmlns="http://www.w3.org/2000/svg">
<path d="M15.0212 0H1.36557C0.612422 0 0 0.448477 0 1.00001V8.00002C0 8.55152 0.612422 9 1.36557 9H15.0212C15.7743 9 16.3867 8.55152 16.3867 7.99999V1.00001C16.3867 0.448477 15.7743 0 15.0212 0ZM1.36557 0.499992H15.0212C15.0715 0.499992 15.1158 0.513422 15.163 0.521016C13.9808 1.31337 10.0607 3.93959 8.68881 4.84472C8.58146 4.91552 8.40844 4.99999 8.1934 4.99999C7.97836 4.99999 7.80533 4.91552 7.69764 4.84448C6.32592 3.93949 2.40555 1.31313 1.2235 0.521063C1.2708 0.513469 1.31523 0.499992 1.36557 0.499992ZM0.68277 7.99999V1.00001C0.68277 0.951023 0.702933 0.906586 0.720984 0.86182C1.62584 1.46829 4.36114 3.30073 6.13475 4.48181C4.3669 5.59385 1.6309 7.49341 0.71884 8.1303C0.702741 8.08779 0.68277 8.04621 0.68277 7.99999ZM15.0212 8.50001H1.36557C1.31103 8.50001 1.26255 8.48609 1.21163 8.47718C2.15409 7.81924 4.90751 5.90876 6.64428 4.82072C6.87068 4.97112 7.0775 5.10825 7.24054 5.21583C7.52193 5.40188 7.85129 5.50001 8.19337 5.50001C8.53544 5.50001 8.86481 5.40185 9.14585 5.21606C9.30895 5.10844 9.51592 4.97119 9.74246 4.82072C11.4793 5.90864 14.2324 7.81898 15.1751 8.47718C15.1242 8.48609 15.0758 8.50001 15.0212 8.50001ZM15.704 7.99999C15.704 8.04619 15.684 8.08779 15.6679 8.1303C14.7555 7.49309 12.0198 5.59373 10.252 4.48184C12.0257 3.30075 14.7606 1.46848 15.6657 0.861773C15.6838 0.906539 15.704 0.951 15.704 0.999984V7.99999Z" fill="black"/>
</svg>
