<svg width="18" height="16" viewBox="0 0 18 16" fill="none" xmlns="http://www.w3.org/2000/svg">
<g clip-path="url(#clip0_46_1777)">
<path d="M8.92903 7.53781C8.29948 7.53781 7.66981 7.31664 7.19064 6.8743C6.23203 5.98974 6.23203 4.55033 7.19064 3.66566C7.65489 3.23709 8.27229 3.0011 8.92903 3.0011C9.58576 3.0011 10.203 3.23721 10.6674 3.66566C11.626 4.55033 11.626 5.98974 10.6674 6.8743C10.1881 7.31664 9.55857 7.53781 8.92903 7.53781ZM8.92903 3.8992C8.54849 3.8992 8.16796 4.03283 7.87823 4.30022C7.29876 4.83499 7.29876 5.70508 7.87823 6.23986C8.15885 6.49884 8.53205 6.64146 8.92903 6.64146C9.326 6.64146 9.6992 6.49884 9.97983 6.23986C10.5593 5.70508 10.5593 4.83499 9.97983 4.30022C9.6901 4.03283 9.30956 3.8992 8.92903 3.8992Z" fill="black"/>
<path d="M8.93444 15.2977L8.55846 14.8901C8.33841 14.6514 3.16699 9.00258 3.16699 5.3174C3.16699 2.38536 5.75169 0 8.92875 0C12.1058 0 14.6905 2.38536 14.6905 5.3174C14.6905 8.82133 9.52364 14.639 9.30372 14.8849L8.93444 15.2977ZM8.92875 0.897398C6.2879 0.897398 4.13938 2.88022 4.13938 5.3174C4.13938 6.68713 5.02439 8.66937 6.69879 11.0499C7.56773 12.2853 8.44274 13.3315 8.92344 13.8852C9.40489 13.3164 10.2883 12.2357 11.1626 10.9769C12.8345 8.57016 13.7181 6.61302 13.7181 5.3174C13.7181 2.88022 11.5696 0.897398 8.92875 0.897398V0.897398Z" fill="black"/>
</g>
<defs>
<clipPath id="clip0_46_1777">
<rect width="16.5761" height="15.2977" fill="white" transform="translate(0.609375)"/>
</clipPath>
</defs>
</svg>
