<svg width="9" height="6" viewBox="0 0 9 6" fill="none" xmlns="http://www.w3.org/2000/svg">
<path d="M8.20832 2.819L5.68289 0.413832C5.61712 0.351192 5.51058 0.351192 5.44482 0.413832C5.37905 0.476471 5.37905 0.577939 5.44482 0.640564L7.68286 2.77203H0.344637C0.251575 2.77203 0.17627 2.84375 0.17627 2.93238C0.17627 3.02101 0.251575 3.09273 0.344637 3.09273H7.68286L5.44482 5.22418C5.37905 5.28682 5.37905 5.38828 5.44482 5.45091C5.4777 5.48222 5.52079 5.49788 5.56387 5.49788C5.60694 5.49788 5.65001 5.48222 5.68291 5.45091L8.20834 3.04574C8.2741 2.98311 8.2741 2.88164 8.20832 2.819Z" fill="black"/>
</svg>
