<svg width="24" height="21" viewBox="0 0 24 21" fill="none" xmlns="http://www.w3.org/2000/svg">
<path d="M21.6409 17.3676C21.2901 17.3676 20.9698 17.4999 20.7267 17.717L19.6944 17.1271V16.1744C19.6944 15.9931 19.5474 15.8461 19.3661 15.8461C19.1848 15.8461 19.0378 15.9931 19.0378 16.1744V16.7519L17.8551 16.0762C17.8553 16.0687 17.8558 16.0612 17.8558 16.0537V9.51534C17.8558 9.28959 17.736 9.07649 17.5431 8.95908L12.1925 5.70438C12.1894 5.7025 12.1862 5.70092 12.1831 5.69909V4.31528L12.6229 4.58276C12.6762 4.61519 12.735 4.6306 12.7931 4.6306C12.904 4.6306 13.0122 4.57448 13.074 4.47283C13.1682 4.31791 13.119 4.11597 12.9641 4.02172L12.1831 3.54667V2.86954C12.7827 2.72193 13.2288 2.17998 13.2288 1.53551C13.2288 0.777882 12.6124 0.16156 11.8548 0.16156C11.0972 0.16156 10.4809 0.777925 10.4809 1.53551C10.4809 2.17998 10.9269 2.72193 11.5265 2.86954V3.55039L10.7519 4.01796C10.5966 4.11168 10.5467 4.31345 10.6405 4.46872C10.7342 4.62399 10.9359 4.6739 11.0912 4.58013L11.5265 4.31739V5.69838C11.5236 5.70009 11.5206 5.70154 11.5177 5.70329L6.12462 8.95873C5.93056 9.07587 5.81 9.28946 5.81 9.51613V11.537C5.81 11.7184 5.957 11.8654 6.13832 11.8654C6.31964 11.8654 6.46664 11.7184 6.46664 11.537V9.91563L11.5264 12.9699V19.1042L6.53169 16.0892C6.52889 16.0836 6.52635 16.0779 6.52315 16.0724C6.50744 16.0449 6.48822 16.0208 6.4666 15.9998V12.9363C6.4666 12.7549 6.3196 12.6079 6.13828 12.6079C5.95696 12.6079 5.80996 12.7549 5.80996 12.9363V16.0531C5.80996 16.069 5.8107 16.0848 5.81188 16.1006L4.62809 16.777V16.1785C4.62809 15.9972 4.48109 15.8502 4.29977 15.8502C4.11845 15.8502 3.97145 15.9972 3.97145 16.1785V17.1521L2.98291 17.7169C2.73986 17.4999 2.41951 17.3676 2.06878 17.3676C1.31119 17.3676 0.694824 17.984 0.694824 18.7416C0.694824 19.4992 1.31119 20.1156 2.06878 20.1156C2.82636 20.1156 3.44273 19.4992 3.44273 18.7416C3.44273 18.5724 3.41178 18.4102 3.35557 18.2604L4.35458 17.6896L5.06699 18.1196C5.12005 18.1517 5.17858 18.1669 5.23636 18.1669C5.3476 18.1669 5.45612 18.1104 5.51775 18.0082C5.61148 17.853 5.56157 17.6512 5.40634 17.5575L5.00732 17.3166L6.18227 16.6453L11.5176 19.8658C11.5509 19.8859 11.5854 19.9023 11.6208 19.916C11.6804 19.9765 11.7631 20.0142 11.8548 20.0142C11.9468 20.0142 12.0298 19.9762 12.0894 19.9152C12.1248 19.9015 12.1593 19.8849 12.1924 19.8647L14.3058 18.5792C14.4607 18.4849 14.5099 18.283 14.4157 18.1281C14.3214 17.9732 14.1195 17.9239 13.9646 18.0182L12.1831 19.1019V12.9691L17.1991 9.9179V16.0506L15.1729 17.2831C15.018 17.3774 14.9688 17.5794 15.063 17.7343C15.1248 17.8359 15.233 17.892 15.3438 17.892C15.402 17.892 15.4608 17.8765 15.5142 17.8442L17.5055 16.6328L18.6782 17.3029L18.2604 17.5571C18.1055 17.6513 18.0563 17.8533 18.1505 18.0082C18.2123 18.1098 18.3205 18.1659 18.4314 18.1659C18.4895 18.1659 18.5484 18.1505 18.6016 18.1181L19.3298 17.6752L20.354 18.2604C20.2978 18.4102 20.2669 18.5723 20.2669 18.7416C20.2669 19.4992 20.8832 20.1156 21.6408 20.1156C22.3984 20.1156 23.0148 19.4992 23.0148 18.7416C23.0148 17.984 22.3985 17.3676 21.6409 17.3676ZM2.06878 19.4589C1.67326 19.4589 1.35146 19.1371 1.35146 18.7416C1.35146 18.3461 1.67326 18.0243 2.06878 18.0243C2.46429 18.0243 2.78609 18.3461 2.78609 18.7416C2.78609 19.1371 2.46429 19.4589 2.06878 19.4589ZM11.1375 1.53551C11.1375 1.14 11.4593 0.818199 11.8548 0.818199C12.2503 0.818199 12.5721 1.14 12.5721 1.53551C12.5721 1.93103 12.2504 2.25282 11.8548 2.25282C11.4593 2.25282 11.1375 1.93103 11.1375 1.53551ZM11.5265 6.46499V6.81047C11.5265 6.99179 11.6735 7.13879 11.8548 7.13879C12.0362 7.13879 12.1832 6.99179 12.1832 6.81047V6.46731L16.8958 9.33393L12.1832 12.2006V11.816C12.1832 11.6347 12.0362 11.4877 11.8548 11.4877C11.6735 11.4877 11.5265 11.6347 11.5265 11.816V12.2029L6.77373 9.33389L11.5265 6.46499ZM21.6409 19.4589C21.2454 19.4589 20.9236 19.1371 20.9236 18.7416C20.9236 18.3461 21.2454 18.0243 21.6409 18.0243C22.0364 18.0243 22.3582 18.3461 22.3582 18.7416C22.3582 19.1371 22.0364 19.4589 21.6409 19.4589Z" fill="black"/>
</svg>
