<svg width="19" height="23" viewBox="0 0 19 23" fill="none" xmlns="http://www.w3.org/2000/svg">
<path d="M18.0555 5.77247C18.0537 5.74043 18.0476 5.70881 18.0372 5.67851C18.0332 5.66681 18.0304 5.65548 18.0253 5.64415C18.0079 5.60439 17.9835 5.56811 17.9535 5.53703L12.9251 0.418823C12.8946 0.388251 12.8589 0.363483 12.8199 0.345706C12.8087 0.340588 12.7976 0.337663 12.7865 0.333642C12.7564 0.323131 12.7251 0.316733 12.6934 0.314631C12.6873 0.315728 12.6805 0.311707 12.6726 0.311707H2.61577C2.41742 0.311707 2.2566 0.475398 2.2566 0.677293V1.77405H0.460735C0.262382 1.77405 0.101562 1.93774 0.101562 2.13964V21.8813C0.101562 22.0832 0.262382 22.2469 0.460735 22.2469H15.546C15.7443 22.2469 15.9051 22.0832 15.9051 21.8813V20.0534H17.701C17.8994 20.0534 18.0602 19.8897 18.0602 19.6878V5.7955C18.0602 5.78746 18.0562 5.78051 18.0555 5.77247ZM13.0318 1.55982L16.834 5.42991H13.0318V1.55982ZM15.1868 21.5157H0.819907V2.50522H2.2566V19.6878C2.2566 19.8897 2.41742 20.0534 2.61577 20.0534H15.1868V21.5157ZM17.3418 19.3222H2.97494V1.04288H12.3134V5.7955C12.3134 5.9974 12.4742 6.16109 12.6726 6.16109H17.3418V19.3222Z" fill="black"/>
</svg>
