<svg width="22" height="22" viewBox="0 0 22 22" fill="none" xmlns="http://www.w3.org/2000/svg">
<path d="M19.5106 3.55365C19.0765 3.52961 18.6709 3.83296 18.6709 4.29023V7.11648H11.7178L11.4096 6.47225C12.123 5.52643 11.8162 4.12945 10.7796 3.56169L10.8016 1.48351C10.8142 0.283594 8.9658 0.27467 8.95317 1.46402L8.93128 3.54001C7.88399 4.08538 7.5476 5.47912 8.24003 6.43866L7.898 7.11648H0.929455C0.523324 7.11648 0.192871 7.44694 0.192871 7.85307V21.3633C0.192871 21.7694 0.523324 22.0999 0.929455 22.0999H19.6418C20.7942 22.0999 21.7326 21.1672 21.7428 20.0171C21.7428 20.0139 21.7432 20.0109 21.7432 20.0077V5.78634C21.7432 4.55523 20.7416 3.55365 19.5106 3.55365ZM19.3023 4.29023C19.3023 4.18576 19.4339 4.16842 19.5106 4.18501C20.3935 4.18501 21.1119 4.90332 21.1119 5.7863V18.5072C20.7325 18.1353 20.2131 17.9056 19.6412 17.9056C19.5591 17.9182 19.3023 17.9415 19.3023 17.8004V4.29023ZM14.2398 13.8513L13.91 14.786L10.2839 7.20626C10.5167 7.15197 10.7341 7.05667 10.9275 6.92754L14.2398 13.8513ZM8.71233 6.9041C8.90287 7.03723 9.11812 7.13732 9.34979 7.1965L5.56455 14.6979L5.25459 13.7564L8.71233 6.9041ZM10.9135 9.98533L8.66178 9.96155L9.81182 7.68243L10.9135 9.98533ZM9.58449 1.47071C9.58853 1.08487 10.1741 1.10141 10.1702 1.47686L10.1505 3.34585C9.95716 3.31478 9.75882 3.31226 9.56479 3.33869L9.58449 1.47071ZM8.90148 4.33384C9.15247 4.08811 9.50022 3.94917 9.85117 3.95216C10.5885 3.95995 11.182 4.56614 11.1743 5.30348C11.1665 6.03606 10.5682 6.62668 9.83728 6.62668C9.83253 6.62668 9.82769 6.62663 9.82293 6.62659C9.08559 6.61881 8.49211 6.01262 8.49986 5.27528C8.5036 4.9181 8.64625 4.58373 8.90148 4.33384ZM19.6418 21.4686H0.929455C0.871412 21.4686 0.824229 21.4213 0.824229 21.3633V7.85311C0.824229 7.79511 0.871412 7.74788 0.929455 7.74788H7.57934L6.47395 9.93848L5.40755 9.92721C5.00188 9.91996 4.99342 10.5542 5.4009 10.5585L6.15706 10.5665L4.67122 13.5111C4.60796 13.6365 4.59731 13.779 4.64121 13.9124L5.04443 15.1372C5.18796 15.5731 5.80678 15.6194 6.01353 15.2096L8.34479 10.5896L11.2171 10.6199L13.4501 15.2876C13.6471 15.6997 14.2683 15.668 14.4208 15.2357L14.8496 14.0203C14.8964 13.8878 14.8888 13.7449 14.8281 13.6181L13.4048 10.643L14.1609 10.651C14.5666 10.6582 14.5751 10.0239 14.1676 10.0196L13.1012 10.0084L12.0198 7.74784H18.6709V17.8004C18.6709 18.3544 19.1708 18.5545 19.6411 18.537C20.4504 18.537 21.1091 19.1943 21.1117 20.0031C21.1092 20.8116 20.4508 21.4686 19.6418 21.4686Z" fill="black"/>
</svg>
