<svg width="41" height="27" viewBox="0 0 41 27" fill="none" xmlns="http://www.w3.org/2000/svg">
<path d="M38.5509 10.8368C37.8909 10.5498 37.1531 10.4212 36.3737 10.4881V4.10235C36.3737 2.38463 34.7671 0.987152 32.7924 0.987152H7.9624C5.98766 0.987152 4.38108 2.38463 4.38108 4.10235V10.4881C1.26152 10.2202 -0.970837 13.0533 0.424524 15.4808L3.60807 21.0188C4.07548 21.8319 4.86822 22.4327 5.81225 22.7279L4.16612 25.0109C3.81579 25.4967 3.98459 26.1376 4.5432 26.4423C5.09933 26.7457 5.83693 26.6023 6.18877 26.1143L8.48328 22.932H32.2772L34.5653 26.1133C34.7918 26.4283 35.1806 26.6011 35.5784 26.6011C36.5057 26.6011 37.0893 25.7071 36.5893 25.0118L34.9459 22.7268C35.8884 22.4313 36.6799 21.8309 37.1466 21.0188L40.3303 15.4808C41.3115 13.7736 40.5133 11.6904 38.5509 10.8368ZM6.76863 4.10235C6.76863 3.52977 7.30415 3.06395 7.9624 3.06395H32.7924C33.4506 3.06395 33.9862 3.52977 33.9862 4.10235V11.4578C33.6769 11.7223 33.4139 12.0335 33.212 12.3847L32.4796 13.6587C31.9092 12.595 30.6686 11.8556 29.2325 11.8556H22.7649C21.8483 11.8556 21.0114 12.157 20.3773 12.6513C19.7432 12.1569 18.9063 11.8556 17.9898 11.8556H11.92C10.5177 11.8556 8.99191 12.5983 8.30827 13.7165L7.54267 12.3847C7.34076 12.0336 7.07781 11.7223 6.76855 11.4578V4.10235H6.76863ZM19.1836 16.0094H10.3284V14.9708C10.3284 14.4856 11.1763 13.9324 11.9201 13.9324H17.9898C18.6481 13.9324 19.1836 14.3982 19.1836 14.9708V16.0094ZM21.5712 14.9708C21.5712 14.3982 22.1067 13.9324 22.7649 13.9324H29.2326C29.8909 13.9324 30.4264 14.3982 30.4264 14.9708V16.0094H21.5712V14.9708ZM38.1948 14.552L35.0112 20.09C34.7399 20.5621 34.1944 20.8553 33.5877 20.8553H7.16719C6.56043 20.8553 6.01496 20.5621 5.74357 20.09L2.56002 14.552C2.16751 13.8692 2.4868 13.0358 3.27175 12.6944C4.05924 12.3519 5.01259 12.6268 5.40733 13.3136L7.71083 17.3206C7.98213 17.7928 8.52769 18.0862 9.1346 18.0862H31.6203C32.2272 18.0862 32.7727 17.7928 33.0439 17.3209L35.3476 13.3135C35.6192 12.8411 36.1656 12.5476 36.7737 12.5476C37.943 12.5476 38.7258 13.6281 38.1948 14.552Z" fill="black"/>
</svg>
