<svg width="17" height="16" viewBox="0 0 17 16" fill="none" xmlns="http://www.w3.org/2000/svg">
<path d="M13.7098 9.47652C13.3705 9.15043 12.9612 8.97608 12.5273 8.97608C12.097 8.97608 11.6842 9.1472 11.3309 9.47329L10.2253 10.4903C10.1344 10.4451 10.0434 10.4032 9.95596 10.3612C9.83001 10.3031 9.71106 10.2482 9.60961 10.1901C8.57405 9.58307 7.63296 8.79204 6.73035 7.76855C6.29304 7.25842 5.99916 6.82901 5.78576 6.39313C6.07263 6.15098 6.33852 5.89915 6.59741 5.657C6.69536 5.56659 6.79332 5.47296 6.89128 5.38256C7.62596 4.70454 7.62596 3.82634 6.89128 3.14831L5.93619 2.26688C5.82774 2.1668 5.71579 2.06348 5.61083 1.96016C5.40092 1.75998 5.18052 1.55335 4.95311 1.35963C4.61376 1.04967 4.20794 0.88501 3.78112 0.88501C3.35431 0.88501 2.94148 1.04967 2.59163 1.35963C2.58814 1.36285 2.58814 1.36285 2.58464 1.36608L1.39515 2.47352C0.947343 2.88679 0.691954 3.39046 0.635978 3.97485C0.552014 4.91763 0.852884 5.79583 1.08378 6.37053C1.65054 7.78147 2.49717 9.08908 3.76013 10.4903C5.29247 12.1789 7.13617 13.5124 9.24226 14.4519C10.0469 14.8038 11.121 15.2203 12.3209 15.2914C12.3944 15.2946 12.4714 15.2978 12.5413 15.2978C13.3495 15.2978 14.0282 15.0298 14.56 14.4971C14.5635 14.4907 14.5705 14.4874 14.574 14.481C14.7559 14.2776 14.9658 14.0935 15.1862 13.8966C15.3366 13.7642 15.4906 13.6254 15.641 13.4801C15.9874 13.1475 16.1693 12.7601 16.1693 12.363C16.1693 11.9626 15.9839 11.5784 15.6305 11.2555L13.7098 9.47652ZM14.9623 12.8763C14.9588 12.8763 14.9588 12.8795 14.9623 12.8763C14.8259 13.0119 14.6859 13.1346 14.5355 13.2702C14.3081 13.4704 14.0772 13.6803 13.8603 13.916C13.5069 14.2647 13.0906 14.4293 12.5448 14.4293C12.4924 14.4293 12.4364 14.4293 12.3839 14.4261C11.3449 14.3647 10.3793 13.9902 9.65509 13.6706C7.67494 12.7859 5.93619 11.53 4.49131 9.93822C3.29833 8.61124 2.50067 7.38434 1.9724 6.06704C1.64704 5.2631 1.52809 4.63673 1.58057 4.04589C1.61556 3.66813 1.77299 3.35495 2.06336 3.08697L3.25635 1.98599C3.42777 1.83747 3.60969 1.75675 3.78812 1.75675C4.00852 1.75675 4.18695 1.87944 4.2989 1.98276C4.3024 1.98599 4.30589 1.98922 4.30939 1.99245C4.5228 2.17648 4.72571 2.36697 4.93912 2.57038C5.04757 2.6737 5.15953 2.77702 5.27148 2.88356L6.22657 3.76499C6.59741 4.10723 6.59741 4.42364 6.22657 4.76588C6.12511 4.85951 6.02715 4.95314 5.9257 5.04355C5.63182 5.32121 5.35194 5.57951 5.04757 5.83134C5.04058 5.8378 5.03358 5.84103 5.03008 5.84749C4.72921 6.12515 4.78519 6.39636 4.84816 6.5804C4.85166 6.59008 4.85516 6.59977 4.85866 6.60946C5.10705 7.16479 5.4569 7.68783 5.98867 8.31097L5.99217 8.3142C6.95775 9.41195 7.97581 10.2675 9.09883 10.923C9.24226 11.0069 9.3892 11.0747 9.52914 11.1393C9.65509 11.1974 9.77403 11.2523 9.87549 11.3104C9.88948 11.3169 9.90348 11.3266 9.91747 11.333C10.0364 11.3879 10.1484 11.4137 10.2638 11.4137C10.5542 11.4137 10.7361 11.2458 10.7956 11.191L11.9921 10.0867C12.111 9.97697 12.2999 9.84459 12.5203 9.84459C12.7373 9.84459 12.9157 9.97051 13.0241 10.0803C13.0276 10.0835 13.0276 10.0835 13.0311 10.0867L14.9588 11.8657C15.3191 12.1951 15.3191 12.5341 14.9623 12.8763Z" fill="black"/>
</svg>
